<svg width="388" height="388" viewBox="0 0 388 388" fill="none" xmlns="http://www.w3.org/2000/svg">
<path d="M387.832 194.058C387.832 301.117 301.044 387.905 193.985 387.905C86.9268 387.905 0.13855 301.117 0.13855 194.058C0.13855 86.9994 86.9268 0.211151 193.985 0.211151C301.044 0.211151 387.832 86.9994 387.832 194.058Z" fill="#0094FF"/>
<path d="M1.00718 175.587C28.0632 158.475 55.0366 144.277 81.8924 138.192C143.764 123.786 205.391 151.568 267.23 179.445C296.465 192.624 325.747 205.824 355.125 214.599C365.34 217.676 375.559 220.243 385.781 222.363C372.081 316.005 291.43 387.905 193.985 387.905C86.9268 387.905 0.13855 301.117 0.13855 194.058C0.13855 187.828 0.432441 181.666 1.00718 175.587Z" fill="#0085E6"/>
<path d="M366.491 282.569C334.334 345.118 269.156 387.905 193.985 387.905C143.779 387.905 98.03 368.818 63.5998 337.504C74.9736 341.189 86.331 343.103 97.6637 342.285C126.922 340.204 156.181 319.994 185.317 299.869C210.351 282.577 235.294 265.347 260.069 259.734C295.597 251.461 330.99 266.593 366.491 282.569Z" fill="#0078CF"/>
<path d="M333.555 112.642C333.555 144.76 307.519 170.796 275.401 170.796C243.283 170.796 217.247 144.76 217.247 112.642C217.247 80.5247 243.283 54.4883 275.401 54.4883C307.519 54.4883 333.555 80.5247 333.555 112.642Z" fill="white"/>
<path d="M217.247 199.873C217.247 215.932 204.229 228.95 188.17 228.95C172.111 228.95 159.093 215.932 159.093 199.873C159.093 183.815 172.111 170.796 188.17 170.796C204.229 170.796 217.247 183.815 217.247 199.873Z" fill="white"/>
<path d="M387.832 194.058C387.832 301.117 301.044 387.905 193.985 387.905C86.9268 387.905 0.13855 301.117 0.13855 194.058C0.13855 86.9994 86.9268 0.211151 193.985 0.211151C301.044 0.211151 387.832 86.9994 387.832 194.058Z" fill="url(#paint0_linear_712_473)" fill-opacity="0.15"/>
<path d="M1.00718 175.587C28.0632 158.475 55.0366 144.277 81.8924 138.192C143.764 123.786 205.391 151.568 267.23 179.445C296.465 192.624 325.747 205.824 355.125 214.599C365.34 217.676 375.559 220.243 385.781 222.363C372.081 316.005 291.43 387.905 193.985 387.905C86.9268 387.905 0.13855 301.117 0.13855 194.058C0.13855 187.828 0.432441 181.666 1.00718 175.587Z" fill="url(#paint1_linear_712_473)" fill-opacity="0.15"/>
<path d="M366.491 282.569C334.334 345.118 269.156 387.905 193.985 387.905C143.779 387.905 98.03 368.818 63.5998 337.504C74.9736 341.189 86.331 343.103 97.6637 342.285C126.922 340.204 156.181 319.994 185.317 299.869C210.351 282.577 235.294 265.347 260.069 259.734C295.597 251.461 330.99 266.593 366.491 282.569Z" fill="url(#paint2_linear_712_473)" fill-opacity="0.15"/>
<defs>
<linearGradient id="paint0_linear_712_473" x1="193.985" y1="0.211151" x2="193.985" y2="387.905" gradientUnits="userSpaceOnUse">
<stop stop-opacity="0.42"/>
<stop offset="1" stop-opacity="0.46"/>
</linearGradient>
<linearGradient id="paint1_linear_712_473" x1="193.985" y1="0.211151" x2="193.985" y2="387.905" gradientUnits="userSpaceOnUse">
<stop stop-opacity="0.42"/>
<stop offset="1" stop-opacity="0.46"/>
</linearGradient>
<linearGradient id="paint2_linear_712_473" x1="193.985" y1="0.211151" x2="193.985" y2="387.905" gradientUnits="userSpaceOnUse">
<stop stop-opacity="0.42"/>
<stop offset="1" stop-opacity="0.46"/>
</linearGradient>
</defs>
</svg>
