<svg id="eQgdZKuXrk61" xmlns="http://www.w3.org/2000/svg" xmlns:xlink="http://www.w3.org/1999/xlink" viewBox="0 0 347 347" shape-rendering="geometricPrecision" text-rendering="geometricPrecision">
  <g mask="url(#eQgdZKuXrk629)">
    <g>
      <circle r="173.5" transform="translate(173.5 173.5)" fill="#0094ff" />
      <g id="eQgdZKuXrk65" transform="translate(.000001 152.09443)">
        <path
          d="M0.777453,156.967C24.9936,141.652,49.1357,128.944,73.1726,123.498C128.55,110.604,183.708,135.47,239.057,160.421c26.166,11.795,52.375,23.61,78.669,31.464c9.143,2.754,18.289,5.051,27.438,6.949C332.902,282.647,260.716,347,173.5,347C77.6786,347,0,269.322,0,173.5c0-5.576.263043-11.091.777453-16.533Z"
          fill="#0085e6"
        />
        <g transform="translate(.000001 0.000001)">
          <g>
            <path
              d="M0.777453,156.967C24.9936,141.652,49.1357,128.944,73.1726,123.498C128.55,110.604,183.708,135.47,239.057,160.421c26.166,11.795,52.375,23.61,78.669,31.464c9.143,2.754,18.289,5.051,27.438,6.949C332.902,282.647,260.716,347,173.5,347C77.6786,347,0,269.322,0,173.5c0-5.576.263043-11.091.777453-16.533Z"
              transform="translate(-344.364001-41.867927)"
              fill="#0085e6"
            />
            <path
              d="M0.777453,156.967C24.9936,141.652,49.1357,128.944,73.1726,123.498C128.55,110.604,183.708,135.47,239.057,160.421c26.166,11.795,52.375,23.61,78.669,31.464c9.143,2.754,18.289,5.051,27.438,6.949C332.902,282.647,260.716,347,173.5,347C77.6786,347,0,269.322,0,173.5c0-5.576.263043-11.091.777453-16.533Z"
              transform="matrix(.986371-.164538 0.164538 0.986371-239.286614 44.133511)"
              fill="#0085e6"
            />
            <path
              d="M0.777453,156.967C24.9936,141.652,49.1357,128.944,73.1726,123.498C128.55,110.604,183.708,135.47,239.057,160.421c26.166,11.795,52.375,23.61,78.669,31.464c9.143,2.754,18.289,5.051,27.438,6.949C332.902,282.647,260.716,347,173.5,347C77.6786,347,0,269.322,0,173.5c0-5.576.263043-11.091.777453-16.533Z"
              transform="matrix(.986371-.164538 0.164538 0.986371-135.399478 100.926212)"
              fill="#0085e6"
            />
          </g>
          <g transform="matrix(-1 0 0 1 1282.278181-41.379951)">
            <path
              d="M0.777453,156.967C24.9936,141.652,49.1357,128.944,73.1726,123.498C128.55,110.604,183.708,135.47,239.057,160.421c26.166,11.795,52.375,23.61,78.669,31.464c9.143,2.754,18.289,5.051,27.438,6.949C332.902,282.647,260.716,347,173.5,347C77.6786,347,0,269.322,0,173.5c0-5.576.263043-11.091.777453-16.533Z"
              transform="matrix(.970783-.23996 0.23996 0.970783 685.688916 147.715185)"
              fill="#0085e6"
            />
            <path
              d="M0.777453,156.967C24.9936,141.652,49.1357,128.944,73.1726,123.498C128.55,110.604,183.708,135.47,239.057,160.421c26.166,11.795,52.375,23.61,78.669,31.464c9.143,2.754,18.289,5.051,27.438,6.949C332.902,282.647,260.716,347,173.5,347C77.6786,347,0,269.322,0,173.5c0-5.576.263043-11.091.777453-16.533Z"
              transform="matrix(.986371-.164538 0.164538 0.986371 380.990531 85.513462)"
              fill="#0085e6"
            />
            <path
              d="M0.777453,156.967C24.9936,141.652,49.1357,128.944,73.1726,123.498C128.55,110.604,183.708,135.47,239.057,160.421c26.166,11.795,52.375,23.61,78.669,31.464c9.143,2.754,18.289,5.051,27.438,6.949C332.902,282.647,260.716,347,173.5,347C77.6786,347,0,269.322,0,173.5c0-5.576.263043-11.091.777453-16.533Z"
              transform="matrix(.986371-.164538 0.164538 0.986371 565.492408 100.926212)"
              fill="#0085e6"
            />
            <path
              d="M0.777453,156.967C24.9936,141.652,49.1357,128.944,73.1726,123.498C128.55,110.604,183.708,135.47,239.057,160.421c26.166,11.795,52.375,23.61,78.669,31.464c9.143,2.754,18.289,5.051,27.438,6.949C332.902,282.647,260.716,347,173.5,347C77.6786,347,0,269.322,0,173.5c0-5.576.263043-11.091.777453-16.533Z"
              transform="matrix(.986371-.164538 0.164538 0.986371 840.911218 202.637593)"
              fill="#0085e6"
            />
          </g>
        </g>
      </g>
      <g id="eQgdZKuXrk617" transform="translate(0 0.000001)">
        <path
          d="M327.899,252.72C299.117,308.704,240.781,347,173.5,347c-44.936,0-85.8833-17.084-116.6995-45.111c10.18,3.299,20.3452,5.011,30.4883,4.28c26.1872-1.863,52.3752-19.951,78.4532-37.964c22.406-15.477,44.731-30.898,66.906-35.923c31.799-7.404,63.476,6.139,95.251,20.438Z"
          transform="translate(0 110.203128)"
          fill="#0078cf"
        />
        <g transform="translate(.000001 0)">
          <path
            d="M327.899,252.72C299.117,308.704,240.781,347,173.5,347c-44.936,0-85.8833-17.084-116.6995-45.111c10.18,3.299,20.3452,5.011,30.4883,4.28c26.1872-1.863,52.3752-19.951,78.4532-37.964c22.406-15.477,44.731-30.898,66.906-35.923c31.799-7.404,63.476,6.139,95.251,20.438Z"
            transform="translate(79.662925 132.824567)"
            fill="#0078cf"
          />
          <path
            d="M327.899,252.72C299.117,308.704,240.781,347,173.5,347c-44.936,0-85.8833-17.084-116.6995-45.111c10.18,3.299,20.3452,5.011,30.4883,4.28c26.1872-1.863,52.3752-19.951,78.4532-37.964c22.406-15.477,44.731-30.898,66.906-35.923c31.799-7.404,63.476,6.139,95.251,20.438Z"
            transform="translate(205.249084 127.016318)"
            fill="#0078cf"
          />
          <path
            d="M327.899,252.72C299.117,308.704,240.781,347,173.5,347c-44.936,0-85.8833-17.084-116.6995-45.111c10.18,3.299,20.3452,5.011,30.4883,4.28c26.1872-1.863,52.3752-19.951,78.4532-37.964c22.406-15.477,44.731-30.898,66.906-35.923c31.799-7.404,63.476,6.139,95.251,20.438Z"
            transform="translate(-289.537431 154.317879)"
            fill="#0078cf"
          />
          <path
            d="M327.899,252.72C299.117,308.704,240.781,347,173.5,347c-44.936,0-85.8833-17.084-116.6995-45.111c10.18,3.299,20.3452,5.011,30.4883,4.28c26.1872-1.863,52.3752-19.951,78.4532-37.964c22.406-15.477,44.731-30.898,66.906-35.923c31.799-7.404,63.476,6.139,95.251,20.438Z"
            transform="translate(-271.098501 159.343468)"
            fill="#0078cf"
          />
          <path
            d="M327.899,252.72C299.117,308.704,240.781,347,173.5,347c-44.936,0-85.8833-17.084-116.6995-45.111c10.18,3.299,20.3452,5.011,30.4883,4.28c26.1872-1.863,52.3752-19.951,78.4532-37.964c22.406-15.477,44.731-30.898,66.906-35.923c31.799-7.404,63.476,6.139,95.251,20.438Z"
            transform="translate(-202.841785 185.419944)"
            fill="#0078cf"
          />
          <path
            d="M327.899,252.72C299.117,308.704,240.781,347,173.5,347c-44.936,0-85.8833-17.084-116.6995-45.111c10.18,3.299,20.3452,5.011,30.4883,4.28c26.1872-1.863,52.3752-19.951,78.4532-37.964c22.406-15.477,44.731-30.898,66.906-35.923c31.799-7.404,63.476,6.139,95.251,20.438Z"
            transform="translate(-233.734995 174.461598)"
            fill="#0078cf"
          />
          <path
            d="M327.899,252.72C299.117,308.704,240.781,347,173.5,347c-44.936,0-85.8833-17.084-116.6995-45.111c10.18,3.299,20.3452,5.011,30.4883,4.28c26.1872-1.863,52.3752-19.951,78.4532-37.964c22.406-15.477,44.731-30.898,66.906-35.923c31.799-7.404,63.476,6.139,95.251,20.438Z"
            transform="translate(-72.736055 185.419943)"
            fill="#0078cf"
          />
        </g>
      </g>
      <path
        id="eQgdZKuXrk627"
        d="M298.42,100.63c0,28.746-23.304,52.05-52.05,52.05-28.747,0-52.05-23.304-52.05-52.05c0-28.7465,23.303-52.0501,52.05-52.0501c28.746,0,52.05,23.3036,52.05,52.0501Z"
        transform="translate(-314.398941 162.967273)"
        opacity="0"
        fill="#fff"
      />
      <path
        id="eQgdZKuXrk628"
        d="M194.32,178.705c0,14.373-11.652,26.025-26.025,26.025s-26.025-11.652-26.025-26.025s11.652-26.025,26.025-26.025s26.025,11.652,26.025,26.025Z"
        transform="translate(386.465529 152.96706)"
        opacity="0"
        fill="#fff"
      />
    </g>
    <mask id="eQgdZKuXrk629" mask-type="alpha" x="-150%" y="-150%" height="400%" width="400%"><circle r="173.5" transform="translate(173.5 173.5)" fill="#0094ff" /></mask>
  </g>
</svg>
